<mxfile host="app.diagrams.net" agent="Mozilla/5.0 (Macintosh; Intel Mac OS X 10_15_7) AppleWebKit/537.36 (KHTML, like Gecko) Chrome/134.0.0.0 Safari/537.36 Edg/134.0.0.0" version="26.1.1">
  <diagram name="第 1 页" id="ZD3tVh1jQbMSXzH8UUKj">
    <mxGraphModel dx="418" dy="236" grid="1" gridSize="10" guides="1" tooltips="1" connect="1" arrows="1" fold="1" page="1" pageScale="1" pageWidth="827" pageHeight="1169" math="0" shadow="0">
      <root>
        <mxCell id="0" />
        <mxCell id="1" parent="0" />
        <mxCell id="G3Z2T1PP6QUM5RSpjgbP-7" value="实体增删改查" style="ellipse;whiteSpace=wrap;html=1;strokeWidth=2;" parent="1" vertex="1">
          <mxGeometry x="400" y="140" width="80" height="40" as="geometry" />
        </mxCell>
        <mxCell id="G3Z2T1PP6QUM5RSpjgbP-8" value="实体检索" style="ellipse;whiteSpace=wrap;html=1;strokeWidth=2;" parent="1" vertex="1">
          <mxGeometry x="400" y="200" width="80" height="40" as="geometry" />
        </mxCell>
        <mxCell id="G3Z2T1PP6QUM5RSpjgbP-9" value="查看统计数据" style="ellipse;whiteSpace=wrap;html=1;strokeWidth=2;" parent="1" vertex="1">
          <mxGeometry x="400" y="260" width="80" height="40" as="geometry" />
        </mxCell>
        <mxCell id="G3Z2T1PP6QUM5RSpjgbP-10" value="查看操作日志" style="ellipse;whiteSpace=wrap;html=1;strokeWidth=2;" parent="1" vertex="1">
          <mxGeometry x="150" y="250" width="80" height="40" as="geometry" />
        </mxCell>
        <mxCell id="G3Z2T1PP6QUM5RSpjgbP-11" value="修改用户权限" style="ellipse;whiteSpace=wrap;html=1;strokeWidth=2;" parent="1" vertex="1">
          <mxGeometry x="150" y="150" width="80" height="40" as="geometry" />
        </mxCell>
        <mxCell id="G3Z2T1PP6QUM5RSpjgbP-12" value="" style="endArrow=none;html=1;rounded=0;strokeWidth=1;exitX=1;exitY=0.5;exitDx=0;exitDy=0;dashed=1;" parent="1" edge="1">
          <mxGeometry width="50" height="50" relative="1" as="geometry">
            <mxPoint x="230" y="270.00000000000006" as="sourcePoint" />
            <mxPoint x="307" y="260" as="targetPoint" />
          </mxGeometry>
        </mxCell>
        <mxCell id="G3Z2T1PP6QUM5RSpjgbP-13" value="" style="endArrow=none;html=1;rounded=0;strokeWidth=1;dashed=1;entryX=0;entryY=0.5;entryDx=0;entryDy=0;" parent="1" target="G3Z2T1PP6QUM5RSpjgbP-9" edge="1">
          <mxGeometry width="50" height="50" relative="1" as="geometry">
            <mxPoint x="324" y="260" as="sourcePoint" />
            <mxPoint x="430" y="330" as="targetPoint" />
          </mxGeometry>
        </mxCell>
        <mxCell id="G3Z2T1PP6QUM5RSpjgbP-14" value="" style="endArrow=none;html=1;rounded=0;strokeWidth=1;dashed=1;entryX=0;entryY=0.5;entryDx=0;entryDy=0;" parent="1" target="G3Z2T1PP6QUM5RSpjgbP-8" edge="1">
          <mxGeometry width="50" height="50" relative="1" as="geometry">
            <mxPoint x="330" y="220" as="sourcePoint" />
            <mxPoint x="414" y="240" as="targetPoint" />
          </mxGeometry>
        </mxCell>
        <mxCell id="G3Z2T1PP6QUM5RSpjgbP-15" value="" style="endArrow=none;html=1;rounded=0;strokeWidth=1;dashed=1;entryX=0;entryY=0.5;entryDx=0;entryDy=0;exitX=1;exitY=0;exitDx=0;exitDy=0;" parent="1" target="G3Z2T1PP6QUM5RSpjgbP-7" edge="1" source="G3Z2T1PP6QUM5RSpjgbP-2">
          <mxGeometry width="50" height="50" relative="1" as="geometry">
            <mxPoint x="330" y="184.73" as="sourcePoint" />
            <mxPoint x="376" y="184.73" as="targetPoint" />
          </mxGeometry>
        </mxCell>
        <mxCell id="G3Z2T1PP6QUM5RSpjgbP-16" value="" style="endArrow=none;html=1;rounded=0;strokeWidth=1;dashed=1;entryX=0;entryY=0.5;entryDx=0;entryDy=0;exitX=1;exitY=0.5;exitDx=0;exitDy=0;" parent="1" source="G3Z2T1PP6QUM5RSpjgbP-11" target="G3Z2T1PP6QUM5RSpjgbP-2" edge="1">
          <mxGeometry width="50" height="50" relative="1" as="geometry">
            <mxPoint x="340" y="194.73" as="sourcePoint" />
            <mxPoint x="410" y="170" as="targetPoint" />
          </mxGeometry>
        </mxCell>
        <mxCell id="RYgo6kuTXcx5WhwTLI-3-2" value="" style="group" vertex="1" connectable="0" parent="1">
          <mxGeometry x="300" y="190" width="30" height="70" as="geometry" />
        </mxCell>
        <mxCell id="G3Z2T1PP6QUM5RSpjgbP-2" value="" style="ellipse;whiteSpace=wrap;html=1;aspect=fixed;strokeWidth=2;" parent="RYgo6kuTXcx5WhwTLI-3-2" vertex="1">
          <mxGeometry x="9.375" width="11.25" height="11.25" as="geometry" />
        </mxCell>
        <mxCell id="G3Z2T1PP6QUM5RSpjgbP-3" value="" style="endArrow=none;html=1;rounded=0;strokeWidth=2;" parent="RYgo6kuTXcx5WhwTLI-3-2" edge="1">
          <mxGeometry width="50" height="50" relative="1" as="geometry">
            <mxPoint y="29.166666666666664" as="sourcePoint" />
            <mxPoint x="30" y="29.166666666666664" as="targetPoint" />
          </mxGeometry>
        </mxCell>
        <mxCell id="G3Z2T1PP6QUM5RSpjgbP-4" value="" style="endArrow=none;html=1;rounded=0;exitX=0.5;exitY=1;exitDx=0;exitDy=0;strokeWidth=2;" parent="RYgo6kuTXcx5WhwTLI-3-2" source="G3Z2T1PP6QUM5RSpjgbP-2" edge="1">
          <mxGeometry width="50" height="50" relative="1" as="geometry">
            <mxPoint x="-31.875" y="70" as="sourcePoint" />
            <mxPoint x="15" y="52.5" as="targetPoint" />
          </mxGeometry>
        </mxCell>
        <mxCell id="G3Z2T1PP6QUM5RSpjgbP-5" value="" style="endArrow=none;html=1;rounded=0;strokeWidth=2;" parent="RYgo6kuTXcx5WhwTLI-3-2" edge="1">
          <mxGeometry width="50" height="50" relative="1" as="geometry">
            <mxPoint x="15" y="52.5" as="sourcePoint" />
            <mxPoint x="5.625" y="70" as="targetPoint" />
          </mxGeometry>
        </mxCell>
        <mxCell id="G3Z2T1PP6QUM5RSpjgbP-6" value="" style="endArrow=none;html=1;rounded=0;strokeWidth=2;" parent="RYgo6kuTXcx5WhwTLI-3-2" edge="1">
          <mxGeometry width="50" height="50" relative="1" as="geometry">
            <mxPoint x="15" y="52.5" as="sourcePoint" />
            <mxPoint x="24.375" y="70" as="targetPoint" />
          </mxGeometry>
        </mxCell>
      </root>
    </mxGraphModel>
  </diagram>
</mxfile>
